<svg width="20" height="20" viewBox="0 0 20 20" fill="none" xmlns="http://www.w3.org/2000/svg">
<g clip-path="url(#clip0)">
<path d="M17.3057 0H2.69602C1.20762 0 0.000976562 1.20659 0.000976562 2.69504V17.3049C0.000976562 18.7933 1.20757 19.9999 2.69602 19.9999H9.90146L9.91374 12.853H8.05699C7.81569 12.853 7.61984 12.6579 7.61891 12.4166L7.61001 10.1129C7.60908 9.87025 7.80551 9.67308 8.04813 9.67308H9.90151V7.44709C9.90151 4.86384 11.4792 3.45724 13.7836 3.45724H15.6746C15.9165 3.45724 16.1127 3.65339 16.1127 3.89537V5.83789C16.1127 6.07978 15.9167 6.27587 15.6748 6.27602L14.5144 6.27655C13.2611 6.27655 13.0185 6.87207 13.0185 7.74602V9.67313H15.7722C16.0346 9.67313 16.2382 9.90225 16.2073 10.1628L15.9342 12.4666C15.9081 12.687 15.7212 12.8531 15.4992 12.8531H13.0308L13.0185 20H17.3058C18.7942 20 20.0008 18.7934 20.0008 17.305V2.69504C20.0008 1.20659 18.7942 0 17.3057 0Z" fill="#475993"/>
</g>
<defs>
<clipPath id="clip0">
<rect width="20" height="20" fill="white"/>
</clipPath>
</defs>
</svg>
