<svg width="17" height="17" viewBox="0 0 17 17" fill="none" xmlns="http://www.w3.org/2000/svg">
<g clip-path="url(#clip0)">
<path d="M1.06248 1.15671C-0.273438 2.54433 -2.16163e-05 4.01838 -2.16163e-05 8.49646C-2.16163e-05 12.2152 -0.648855 15.9432 2.7469 16.8208C3.80727 17.0935 13.2026 17.0935 14.2616 16.8194C15.6754 16.4546 16.8257 15.3078 16.983 13.3082C17.0049 13.0291 17.0049 3.96879 16.9823 3.68404C16.8151 1.55408 15.504 0.326542 13.7764 0.0779165C13.3804 0.0205415 13.3011 0.00354147 11.2696 -1.93938e-07C4.06369 0.00354147 2.4841 -0.317334 1.06248 1.15671V1.15671Z" fill="url(#paint0_linear)"/>
<path d="M8.49855 2.22346C5.92659 2.22346 3.48426 1.99467 2.55139 4.38883C2.16605 5.37767 2.22201 6.66187 2.22201 8.50071C2.22201 10.1143 2.1703 11.6308 2.55139 12.6119C3.48214 15.0075 5.9443 14.778 8.49714 14.778C10.96 14.778 13.4994 15.0344 14.4436 12.6119C14.8296 11.6131 14.773 10.348 14.773 8.50071C14.773 6.04846 14.9083 4.46533 13.719 3.27675C12.5148 2.07258 10.8863 2.22346 8.49572 2.22346H8.49855ZM7.93614 3.35467C13.3011 3.34617 13.9839 2.74975 13.6071 11.0351C13.4732 13.9655 11.2419 13.6439 8.49926 13.6439C3.49843 13.6439 3.35464 13.5008 3.35464 8.49787C3.35464 3.43683 3.7513 3.3575 7.93614 3.35325V3.35467ZM11.849 4.39662C11.4332 4.39662 11.096 4.73379 11.096 5.14958C11.096 5.56537 11.4332 5.90254 11.849 5.90254C12.2648 5.90254 12.6019 5.56537 12.6019 5.14958C12.6019 4.73379 12.2648 4.39662 11.849 4.39662V4.39662ZM8.49855 5.27708C6.71851 5.27708 5.27564 6.72067 5.27564 8.50071C5.27564 10.2807 6.71851 11.7236 8.49855 11.7236C10.2786 11.7236 11.7208 10.2807 11.7208 8.50071C11.7208 6.72067 10.2786 5.27708 8.49855 5.27708V5.27708ZM8.49855 6.40829C11.2646 6.40829 11.2681 10.5931 8.49855 10.5931C5.73322 10.5931 5.72897 6.40829 8.49855 6.40829Z" fill="white"/>
</g>
<defs>
<linearGradient id="paint0_linear" x1="1.09508" y1="15.9142" x2="16.8948" y2="2.23973" gradientUnits="userSpaceOnUse">
<stop stop-color="#FFDD55"/>
<stop offset="0.5" stop-color="#FF543E"/>
<stop offset="1" stop-color="#C837AB"/>
</linearGradient>
<clipPath id="clip0">
<rect width="17" height="17" fill="white"/>
</clipPath>
</defs>
</svg>
