<svg width="42" height="22" viewBox="0 0 42 22" fill="none" xmlns="http://www.w3.org/2000/svg">
<g clip-path="url(#clip0)">
<path d="M30.8861 0H11.1138C10.8044 0.0248223 10.5157 0.164021 10.3052 0.389911C10.0947 0.6158 9.97787 0.911828 9.97787 1.21911C9.97787 1.5264 10.0947 1.82243 10.3052 2.04832C10.5157 2.27421 10.8044 2.4134 11.1138 2.43823V19.5698C10.9381 19.5413 10.7583 19.5509 10.5868 19.5981C10.4153 19.6452 10.2562 19.7287 10.1205 19.8428C9.98481 19.9569 9.87582 20.0988 9.80108 20.2587C9.72634 20.4186 9.68762 20.5927 9.68762 20.7689C9.68762 20.9451 9.72634 21.1192 9.80108 21.2791C9.87582 21.439 9.98481 21.5809 10.1205 21.695C10.2562 21.809 10.4153 21.8925 10.5868 21.9397C10.7583 21.9868 10.9381 21.9965 11.1138 21.968H30.8861C33.7259 21.8163 36.3988 20.5929 38.3548 18.5497C40.3108 16.5064 41.401 13.7988 41.401 10.984C41.401 8.16926 40.3108 5.46161 38.3548 3.41835C36.3988 1.37509 33.7259 0.151706 30.8861 0V0Z" fill="#AEADB3"/>
<path d="M22.2277 11C22.2277 8.82441 21.5759 6.69767 20.3547 4.88873C19.1335 3.07979 17.3977 1.66989 15.3669 0.83733C13.3361 0.00476615 11.1015 -0.213071 8.94565 0.211367C6.78977 0.635804 4.80947 1.68345 3.25517 3.22183C1.70088 4.76021 0.642385 6.72022 0.213554 8.85401C-0.215276 10.9878 0.00481547 13.1995 0.845996 15.2095C1.68718 17.2195 3.11167 18.9375 4.93933 20.1462C6.76699 21.3549 8.91574 22 11.1139 22C14.0608 21.9979 16.8864 20.8383 18.9702 18.7758C21.054 16.7134 22.2256 13.9167 22.2277 11V11Z" fill="#F2F2F2"/>
</g>
<defs>
<clipPath id="clip0">
<rect width="42" height="22" fill="white"/>
</clipPath>
</defs>
</svg>
