<svg width="17" height="17" viewBox="0 0 17 17" fill="none" xmlns="http://www.w3.org/2000/svg">
<g clip-path="url(#clip0)">
<path d="M16.6497 4.41915C16.4538 3.69089 15.8796 3.11684 15.1515 2.92074C13.8211 2.55667 8.49984 2.55667 8.49984 2.55667C8.49984 2.55667 3.17867 2.55667 1.84834 2.90686C1.13422 3.10283 0.546033 3.69102 0.350058 4.41915C0 5.74935 0 8.50805 0 8.50805C0 8.50805 0 11.2806 0.350058 12.5969C0.546163 13.3251 1.12021 13.8993 1.84847 14.0954C3.19267 14.4594 8.49996 14.4594 8.49996 14.4594C8.49996 14.4594 13.8211 14.4594 15.1515 14.1092C15.8797 13.9133 16.4538 13.3391 16.6499 12.611C16.9999 11.2806 16.9999 8.52205 16.9999 8.52205C16.9999 8.52205 17.0139 5.74935 16.6497 4.41915Z" fill="#FF0000"/>
<path d="M6.80554 11.0566L11.2305 8.50804L6.80554 5.95944V11.0566Z" fill="white"/>
</g>
<defs>
<clipPath id="clip0">
<rect width="17" height="17" fill="white"/>
</clipPath>
</defs>
</svg>
